<svg width="12" height="16" viewBox="0 0 12 16" fill="none" xmlns="http://www.w3.org/2000/svg">
<path d="M-8.82149e-06 15V1C-8.82149e-06 0.447698 0.447724 0 0.999996 0C1.55227 0 2 0.447698 2 1V15C2 15.5523 1.55227 16 0.999996 16C0.447724 16 -8.82149e-06 15.5523 -8.82149e-06 15Z" fill="white"/>
<path d="M5.00003 15V1C5.00003 0.447698 5.44772 0 6 0C6.55227 0 7 0.447698 7 1V15C7 15.5523 6.5523 16 6 16C5.44769 16 5.00003 15.5523 5.00003 15Z" fill="white"/>
<path d="M9.99999 15V1C9.99999 0.447698 10.4477 0 11 0C11.5523 0 12 0.447698 12 1V15C12 15.5523 11.5523 16 11 16C10.4477 16 9.99999 15.5523 9.99999 15Z" fill="white"/>
</svg>
